<?xml version="1.0" encoding="UTF-8"?>
<svg id="Layer_1" xmlns="http://www.w3.org/2000/svg" version="1.1" xmlns:xlink="http://www.w3.org/1999/xlink" viewBox="0 0 1080 1080">
  <!-- Generator: Adobe Illustrator 29.3.1, SVG Export Plug-In . SVG Version: 2.1.0 Build 151)  -->
  <defs>
    <style>
      .st0 {
        fill: url(#linear-gradient2);
      }

      .st1 {
        fill: url(#linear-gradient1);
      }

      .st2 {
        fill: #636365;
      }

      .st3 {
        fill: url(#linear-gradient3);
      }

      .st4 {
        fill: url(#linear-gradient);
      }
    </style>
    <linearGradient id="linear-gradient" x1="540.4" y1="1080.08" x2="540.4" y2=".08" gradientUnits="userSpaceOnUse">
      <stop offset="0" stop-color="#15171b"/>
      <stop offset="1" stop-color="#303030"/>
    </linearGradient>
    <linearGradient id="linear-gradient1" x1="558.1" y1="642.82" x2="558.1" y2="328.66" gradientUnits="userSpaceOnUse">
      <stop offset="0" stop-color="#656567"/>
      <stop offset="1" stop-color="#b0afb2"/>
    </linearGradient>
    <linearGradient id="linear-gradient2" x1="874.98" y1="554.82" x2="874.98" y2="304.69" xlink:href="#linear-gradient1"/>
    <linearGradient id="linear-gradient3" x1="235.41" y1="554.93" x2="235.41" y2="304.86" xlink:href="#linear-gradient1"/>
  </defs>
  <rect class="st4" x=".4" y=".08" width="1080" height="1080" rx="330.12" ry="330.12"/>
  <path class="st2" d="M361.08,755.99c-11.24,12.88-46.77,61.32-13.23,66.54,18.19,2.83,25.77-26.51,35.4-37.49,82.33-93.9,241.59-115.57,331.47-19.86,13.35,14.21,29.29,54.14,48.48,55.6,3.79.29,11.79-.36,14.43-3,13.71-13.67-23.14-60.18-32.91-71.02-101.18-112.19-285.89-102.81-383.63,9.23Z"/>
  <path class="st2" d="M384.61,697.93c19.25,12.25,33.5-2.51,26.3-23.94-7.42-22.08-52.91-60.26-73.35-72.12-36.7-21.29-81.16-31.4-123.63-27.45-55.59,5.17-104.84,35.09-138.11,78.98-7.22,9.52-19.66,23.4-15.8,36.35,1.61,5.4,13.24,13.88,19.12,13.26,6.61-.69,27.1-29.2,33.53-35.89,57.92-60.33,148.22-81.1,218.36-26.42,18.26,14.23,38.03,47.33,53.59,57.23Z"/>
  <path class="st2" d="M1032.28,648.79c-64.95-78.6-180.92-100.04-267.77-43.72-21.15,13.71-61.83,50.79-64.39,76.62-2.21,22.35,16.54,24.17,31.02,11.2,10.66-9.54,18.74-27.09,28.45-37.35,63.52-67.13,185.95-56.4,242.72,13.95,9.46,11.72,20.1,42.81,40.56,31.25,20.16-11.4-.86-40.17-10.59-51.95Z"/>
  <path class="st1" d="M558.1,642.82c86.87,0,157.29-70.33,157.29-157.08s-70.42-157.08-157.29-157.08-157.29,70.33-157.29,157.08,70.42,157.08,157.29,157.08ZM557.95,365.06c66.84,0,121.03,54.11,121.03,120.87s-54.19,120.87-121.03,120.87-121.03-54.11-121.03-120.87,54.19-120.87,121.03-120.87Z"/>
  <path class="st0" d="M874.98,554.82c69.16,0,125.23-55.99,125.23-125.06s-56.07-125.06-125.23-125.06-125.23,55.99-125.23,125.06,56.07,125.06,125.23,125.06ZM874.81,340.74c49.22,0,89.12,39.85,89.12,89s-39.9,89-89.12,89-89.12-39.85-89.12-89,39.9-89,89.12-89Z"/>
  <path class="st3" d="M235.41,554.93c69.15,0,125.2-55.98,125.2-125.03s-56.05-125.03-125.2-125.03-125.2,55.98-125.2,125.03,56.05,125.03,125.2,125.03ZM235.55,340.36c49.38,0,89.42,39.98,89.42,89.3s-40.03,89.3-89.42,89.3-89.42-39.98-89.42-89.3,40.03-89.3,89.42-89.3Z"/>
</svg>