<?xml version="1.0" encoding="UTF-8"?>
<svg id="Layer_1" xmlns="http://www.w3.org/2000/svg" version="1.1" xmlns:xlink="http://www.w3.org/1999/xlink" viewBox="0 0 1080 1080">
  <!-- Generator: Adobe Illustrator 29.3.1, SVG Export Plug-In . SVG Version: 2.1.0 Build 151)  -->
  <defs>
    <style>
      .st0 {
        fill: #ff3e6c;
      }

      .st1 {
        fill: url(#linear-gradient);
      }
    </style>
    <linearGradient id="linear-gradient" x1="540" y1="1080" x2="540" y2="0" gradientUnits="userSpaceOnUse">
      <stop offset="0" stop-color="#15171b"/>
      <stop offset="1" stop-color="#303030"/>
    </linearGradient>
  </defs>
  <rect class="st1" width="1080" height="1080" rx="330.12" ry="330.12"/>
  <g>
    <path class="st0" d="M402.88,153.08c-49.89-1.29-106.17,48.16-106.21,97.22,0,0-.49,570.4-.49,570.64-.05,55.38,57.94,105.71,115.07,105.5,31.48-.11,286.97,2.35,301.7-2.05,47.99-14.34,85.9-52.69,91.46-100.7l.16-568.05c-3.95-44.03-39.47-93.03-87.8-102.43-4.01-.78-279.97.75-313.89-.12ZM376.3,206.68c2.74-4.43,8.03-6.89,13.46-6.91l321.48-.68c8.72.57,15.27,7.74,14.75,15.56-.54,8.24-8.75,14.75-17.9,13.6-105.14,0-210.28,0-315.41,0-14.86-.25-22.22-12.14-16.38-21.58ZM725.18,862.85h-349.6v-28.98h349.6v28.98ZM758.54,802h-416.33v-43.47h416.33v43.47ZM758.54,752.73h-416.33v-492.65h416.33v492.65Z"/>
    <path class="st0" d="M475.45,587.53c-2.54.51-19.32,42.77-19.37,45.5-.33,18.56,62.47,25.77,65.43,29.67,4.36,5.75-.42,32.01,1.33,40.77h55.1v-46.37c73.23-14.33,91.96-101.36,32.14-144.9-17.52-12.75-80.72-31.35-84.1-47.89-7.62-37.25,41.19-32.85,65.84-24.66,10.8,3.59,18.22,11.22,28.94,11.68l18.59-47.61c-17.02-10.87-37.11-20.14-58.37-19.02-1.52-8.56,3.39-38.1-2.85-42.22-3.44-2.27-45.93-2.27-49.37,0-7.27,4.79.35,40.9-3.22,44.78-.96,1.04-20.24,6.78-26.94,10.7-48.94,28.58-49.06,89.52-4.77,122.86,21.2,15.96,83.3,31.26,87,53.87,8.86,54-79.53,35.52-105.38,12.83Z"/>
  </g>
</svg>