<?xml version="1.0" encoding="UTF-8"?>
<svg id="Layer_1" xmlns="http://www.w3.org/2000/svg" version="1.1" xmlns:xlink="http://www.w3.org/1999/xlink" viewBox="0 0 1080 1080">
  <!-- Generator: Adobe Illustrator 29.3.1, SVG Export Plug-In . SVG Version: 2.1.0 Build 151)  -->
  <defs>
    <style>
      .st0 {
        fill: url(#linear-gradient1);
      }

      .st1 {
        fill: #18bef9;
      }

      .st2 {
        fill: #1aa4f6;
      }

      .st3 {
        fill: #fefefe;
      }

      .st4 {
        fill: url(#linear-gradient);
      }
    </style>
    <linearGradient id="linear-gradient" x1="540.4" y1="1080.08" x2="540.4" y2=".08" gradientUnits="userSpaceOnUse">
      <stop offset="0" stop-color="#15171b"/>
      <stop offset="1" stop-color="#303030"/>
    </linearGradient>
    <linearGradient id="linear-gradient1" x1="205.59" y1="-563.23" x2="205.59" y2="-399.88" gradientTransform="translate(-40.8 1966.41) scale(2.83)" gradientUnits="userSpaceOnUse">
      <stop offset="0" stop-color="#18c0f9"/>
      <stop offset="1" stop-color="#1d73f1"/>
    </linearGradient>
  </defs>
  <rect class="st4" x=".4" y=".08" width="1080" height="1080" rx="330.12" ry="330.12"/>
  <g>
    <path class="st0" d="M173.5,368.79h735.49c-4.14-2.25-4.12-3.86,0-6.12,2.93-.32,3.9,1.06,4.44,3.36,10.45-1.35,29.07,3.03,28.25,15,.17,93.25.41,361.06,0,408.48-1.56,26.31-17.89,46.34-46.6,50.47l-704.48.08c-30.37-2.13-49.24-23.33-49.78-50.55-.94-47.93-.76-319.74,0-408.48-1.15-12.02,17.93-16.26,28.34-15.06.21-2.14,2-2.79,4.35-3.3,4.12,2.26,4.14,3.87,0,6.12Z"/>
    <path class="st2" d="M140.17,381.8c.27-42.35-13.66-126.35,44.52-138,26.25-5.26,102.56-3.91,131.5-1.95,59.57,4.02,68.07,50.66,125.28,55.11l451.96.45c49.41,7.46,47.76,44.59,48.46,82.19-.46,1.34-1.01,1.32-1.63,0-5.78-7.89-10.58-10.43-20.52-12.07-7.95-1.32-9.8,3.23-12.03-6.29l-3.39-2.13c-.77-13.28-11.49-15.42-23.55-16.3H200.72c-11.43.95-21.44,4.03-21.98,16.28l-3.39,2.15c-2.24,9.52-4.08,4.97-12.03,6.29-9.38,1.55-17.36,9.5-22.55,17.34-.46,1.34.02-1.74-.6-3.05Z"/>
    <path class="st3" d="M907.72,362.67c.06,2.04-.04,4.08,0,6.12H175.35c.04-2.04-.06-4.08,0-6.12.49-15.94,9.44-19.8,25.17-21.47h680.41c16.24,1.13,26.27,4.81,26.78,21.47Z"/>
    <path class="st1" d="M907.72,368.79H175.35h732.37Z"/>
  </g>
</svg>