<?xml version="1.0" encoding="UTF-8"?>
<svg id="Layer_1" data-name="Layer 1" xmlns="http://www.w3.org/2000/svg" viewBox="0 0 477.79 158.8">
  <defs>
    <style>
      .cls-1 {
        fill: #f8f6fb;
      }

      .cls-2 {
        fill: #fbfafd;
      }

      .cls-3 {
        fill: #f7f5fa;
      }

      .cls-4 {
        fill: #8f78c7;
      }

      .cls-5 {
        fill: #fefefe;
      }

      .cls-6 {
        fill: #8d74c7;
      }

      .cls-7 {
        fill: #8c74c5;
      }
    </style>
  </defs>
  <rect class="cls-6" width="477.79" height="158.8" rx="45.21" ry="45.21"/>
  <g>
    <path class="cls-5" d="M123.87,67.65c.14-2.45-.98-6.88,1.88-7.82,2.52-.82,18.02-.4,21.1.33,5.64,1.33,11.08,9.81,11.15,15.12.05,3.35-4.1,3.44-4.36,3.79-4.25,5.86,21.25,5.34,24.04,3.4v-15.96h9.16v15.96c15.87,3.62,22.9,1.83,20.61-15.96h7.36c2.7.38-4.28,20.89,8.73,16.6,6.04-1.99,2.49-11.55,3.38-16.6h7.36c2.49.35-2.76,15.67,4.91,16.87,10.73,1.68,6.41-10.01,7.19-16.87h7.36c-.5,17.95,3.08,19.3,20.6,17.01,3.13-.41,18.38-7,19.65-9,1.76-2.77-3.6-6.86-5.81-6.86h-18.89c.1-4.66-1.48-7.38,3.95-8.03,5.45-.66,18.52-.6,22.96,2.33,3.35,2.21,8.69,12.5,6.42,15.44-.61.79-15.12,9.75-16.94,10.57-7.77,3.5-18.79,4.6-27.27,3.63-3.18-.36-7.49-3.01-8.02-3.01-1.2,0-5.33,3.26-10.31,3.1s-7.27-3.51-9.15-3.52-3.67,2.63-5.96,3.18c-8.09,1.93-12.44-3.15-14.46-2.98-1.75.15-4.32,2.7-7.14,3.15-3.34.54-13.53.51-16.59-.43-1.67-.51-3.26-3.01-4.89-2.75-1.24.19-3,2.7-5.99,3.19-5.36.89-21.7.87-25.65-2.84-1.54-1.44-2.29-5.11-2.94-5.1-1.21.03-8.75,5.42-12.92,6.52-5.75,1.52-23.43.61-24.27,1.48-.26.27-.21,5.19-1.07,7.49-3.65,9.79-16.65,12.07-25.91,10.81-2.92-.39-2.45-5.22-2.8-8.04,9.15.11,20.93,1.84,22.92-9.68-8.54-1.1-19.98.95-21.7-10.35-4.16-27.31,34.29-26.39,29.69,1.79,5.69-.43,12.07.62,17.66-.1,3.19-.41,19.51-7.45,20.05-9.71.59-2.49-4.11-6.15-6.21-6.15h-18.89Z"/>
    <path class="cls-5" d="M348.12,40.57c36.36-1.74,41.44,55.55,4.2,58.97-41.48,3.82-45.26-57.01-4.2-58.97Z"/>
    <path class="cls-5" d="M373.11,93.47c1.17-1.05,2.02-4.59,4.26-4.09,3.74,4.54,19.91,17.01,20.06,22.12.19,6.52-6.01,8.1-11.3,5.71-1.11-.5-16.2-15.49-17.27-17.04-2.55-3.69,2-4.66,4.26-6.7Z"/>
    <rect class="cls-1" x="166.24" y="50.55" width="20.61" height="7.98"/>
    <rect class="cls-3" x="129.59" y="100.7" width="10.32" height="6.85"/>
    <rect class="cls-3" x="275.02" y="100.7" width="10.32" height="6.85"/>
    <path class="cls-4" d="M103.27,83.61c-3.47-.21-10.07.91-12.63-1.68-8.97-9.08,15.57-22.33,12.63,1.68Z"/>
    <path class="cls-7" d="M345.76,49.7c30.44-3.77,31.79,45.42-1.36,40.64-21.72-3.13-22.45-37.69,1.36-40.64Z"/>
    <path class="cls-2" d="M350.6,55.12c.95,5.79-4.04,3.68-7.5,5.63-6.6,3.73-2.97,11.88-9.66,11.46-1.76-10.21,6.92-18.84,17.17-17.09Z"/>
  </g>
</svg>