<?xml version="1.0" encoding="UTF-8"?>
<svg id="Layer_1" xmlns="http://www.w3.org/2000/svg" version="1.1" xmlns:xlink="http://www.w3.org/1999/xlink" viewBox="0 0 1080 1080">
  <!-- Generator: Adobe Illustrator 29.3.1, SVG Export Plug-In . SVG Version: 2.1.0 Build 151)  -->
  <defs>
    <style>
      .st0 {
        fill: url(#linear-gradient2);
      }

      .st1 {
        fill: url(#linear-gradient1);
      }

      .st2 {
        fill: url(#linear-gradient);
      }
    </style>
    <linearGradient id="linear-gradient" x1="540.4" y1="1080.08" x2="540.4" y2=".08" gradientUnits="userSpaceOnUse">
      <stop offset="0" stop-color="#15171b"/>
      <stop offset="1" stop-color="#303030"/>
    </linearGradient>
    <linearGradient id="linear-gradient1" x1="553.7" y1="504.33" x2="527.23" y2="125.84" gradientUnits="userSpaceOnUse">
      <stop offset="0" stop-color="#5b4ec0"/>
      <stop offset="1" stop-color="#1598d1"/>
    </linearGradient>
    <linearGradient id="linear-gradient2" x1="540.4" y1="887.02" x2="540.4" y2="553.92" gradientUnits="userSpaceOnUse">
      <stop offset="0" stop-color="#5a49cc"/>
      <stop offset="1" stop-color="#5a49cc"/>
    </linearGradient>
  </defs>
  <rect class="st2" x=".4" y=".08" width="1080" height="1080" rx="330.12" ry="330.12"/>
  <g>
    <path class="st1" d="M540.11,504.81c-43.7,0-85.7-14.95-119.94-43.03-39.18-32.13-63.51-77.59-68.5-128.02-4.99-50.42,9.96-99.77,42.08-138.96,32.13-39.18,77.6-63.51,128.02-68.5,104.11-10.29,197.17,66.01,207.47,170.11h0c10.3,104.1-66.01,197.17-170.11,207.46-6.36.63-12.71.94-19.03.94ZM540.56,173.58c-4.64,0-9.32.23-14.03.69-37.61,3.72-71.52,21.87-95.48,51.09-23.96,29.23-35.11,66.03-31.39,103.64,3.72,37.61,21.87,71.52,51.09,95.49,29.23,23.96,66.04,35.08,103.64,31.39,77.64-7.68,134.55-77.09,126.87-154.74-7.22-72.92-68.9-127.57-140.7-127.57Z"/>
    <path class="st0" d="M830.34,887.02H250.53c-24.27,0-46.62-12.2-59.77-32.63-13.1-20.34-14.95-45.6-4.96-67.58,62.48-137.42,197.6-228.78,344.22-232.75,155.38-4.25,298.44,87,364.86,232.35,10.11,22.12,8.3,47.55-4.85,68-13.12,20.42-35.44,32.61-59.71,32.61ZM540.31,602.14c-2.99,0-5.97.04-8.98.12-128.33,3.47-246.73,83.74-301.64,204.5-4.58,10.06-.4,18.4,1.61,21.52,2.03,3.16,7.98,10.51,19.23,10.51h579.81c7.9,0,14.87-3.81,19.14-10.46,4.29-6.68,4.86-14.67,1.56-21.9-57.07-124.89-178.35-204.3-310.73-204.3Z"/>
  </g>
</svg>