<?xml version="1.0" encoding="UTF-8"?>
<svg id="Layer_1" xmlns="http://www.w3.org/2000/svg" version="1.1" xmlns:xlink="http://www.w3.org/1999/xlink" viewBox="0 0 1080 1080">
  <!-- Generator: Adobe Illustrator 29.3.1, SVG Export Plug-In . SVG Version: 2.1.0 Build 151)  -->
  <defs>
    <style>
      .st0 {
        fill: #fc02d1;
      }

      .st1 {
        fill: url(#linear-gradient);
      }
    </style>
    <linearGradient id="linear-gradient" x1="540" y1="1080" x2="540" y2="0" gradientUnits="userSpaceOnUse">
      <stop offset="0" stop-color="#15171b"/>
      <stop offset="1" stop-color="#303030"/>
    </linearGradient>
  </defs>
  <rect class="st1" width="1080" height="1080" rx="330.12" ry="330.12"/>
  <path class="st0" d="M558.08,372.07c-18.82-18.14-29.37-6.86-43.01,7.91-55.92,60.54-116.43,129.79-168.36,193.42-30.47,37.34-36.26,67.74-18.7,112.77,10.52,26.98,24.2,53.25,35.08,80.15.23,2.23-13.21,10.97-16.37,14.31-39.04,41.29-7.45,99.74,49.18,103.55,93.77,6.32,195.11-4.69,289.67,0,17.16-1.35,33.82-7.21,45.97-18.92,23.37-22.54,24.53-60.14,2.58-84.02-3.2-3.48-17.36-12.64-17.12-14.91,10.69-26.82,24.68-53.33,35.11-80.12,15.26-39.22,13.27-72.09-13.19-106.2-55.19-71.15-124.69-136.92-180.83-207.93ZM540.02,612.57c16.98,0,30.74,13.1,30.74,29.27s-13.76,29.27-30.74,29.27-30.74-13.1-30.74-29.27,13.76-29.27,30.74-29.27ZM688.36,843.28h-296.63c-19.32-2.56-26.57-24.98-11.7-37.54,6.8-5.74,12.15-4.17,20.42-5.63,89.97,2.98,184.57-5.32,274.03-.38,4.37.24,14.1.82,17.74,1.58,21.1,4.39,21.41,39.21-3.87,41.96ZM717.16,660.85l-42.13,99.12h-269.98l-42.42-100.17c-6.44-24.03-.36-39.88,14.57-58.69,41.81-52.65,92.32-101.68,134.46-154.42l6.89-5.97v135.95c-67.23,17.27-68.08,110.04-2.12,130.71,67.32,21.1,123.09-49.78,83.09-105.51-9.65-13.44-22.83-20.53-37.99-27.18v-133.97c2.63,1.35,4.89,3.87,6.89,5.97,42.75,44.96,89.35,99.93,128.91,147.82,17.87,21.63,28.02,37.14,19.83,66.33Z"/>
  <path class="st0" d="M963.23,188.22c-28.5-45.39-97.34-49.97-132.75-9.46-8.08,9.24-11.95,19.43-17.55,29.48l-195.95-.48v-21.12c0-.61-4-9.8-4.8-11.27-4.39-8.12-12.63-14.75-21.82-17.5-14.62-4.38-68.97-3.46-86.42-2.3-15.61,1.03-29.58,6.68-36.49,20.68-.87,1.77-4.33,10.61-4.33,11.71v20.46l-195.95-.18c-5.6-10.05-9.48-20.24-17.55-29.48-35.12-40.18-103.41-36.03-132.22,8.65-38.06,59.01,15.27,132.12,86.57,118.07,31.05-6.12,52.49-28.67,63.02-56.14h122.67c-20.56,14.83-41.55,29.17-58.93,47.5-43.29,45.64-69.45,104.59-74.34,166.13-60.13,17.7-59.68,102.13.87,119,75.1,20.93,118.82-72.99,55.78-112.51-2.68-1.68-12.44-5.68-12.84-6.25-4.41-6.26,8.47-50.98,11.82-60.13,24.05-65.78,81.8-119.89,151.1-141.87-1.01,21.64,13.7,39.09,36.7,40.96,19.57,1.6,65.38,2.07,84.25-.39,20.77-2.71,33.73-21.42,33.61-40.56,89.84,29.36,157.3,109.96,162.94,201.04-70.76,27.37-50.23,127.38,28.43,122.37,63.46-4.04,82.83-85.89,25.12-117.75-2.44-1.35-9.99-3.6-10.36-4-1.27-1.37-2.63-21.97-3.44-26.42-14.38-78.48-60.68-143.38-129.89-187.15h122.67c10.3,27.46,32.14,50.07,63.02,56.14,70.9,13.93,124.23-58.11,87.1-117.25ZM186.74,267.03c-22.06,0-39.95-17.03-39.95-38.04s17.89-38.04,39.95-38.04,39.95,17.03,39.95,38.04-17.89,38.04-39.95,38.04ZM301.27,522.27c0,12.61-10.73,22.83-23.97,22.83s-23.97-10.22-23.97-22.83,10.73-22.83,23.97-22.83,23.97,10.22,23.97,22.83ZM575.39,262.53h-70.69v-65.99h70.69v65.99ZM802.82,499.4c13.24,0,23.97,10.22,23.97,22.82s-10.73,22.82-23.97,22.82-23.97-10.22-23.97-22.82,10.73-22.82,23.97-22.82ZM893.32,267.04c-22.06,0-39.94-17.03-39.94-38.04s17.88-38.04,39.94-38.04,39.94,17.03,39.94,38.04-17.88,38.04-39.94,38.04Z"/>
</svg>